<svg width="500" height="182" viewBox="0 0 500 182" fill="none" xmlns="http://www.w3.org/2000/svg">
<g clip-path="url(#clip0_196_154)">
<path d="M79.9455 118.3C78.6111 117.381 76.7981 117.022 74.4514 117.215C66.951 117.721 58.7879 118.125 50.1832 118.428C45.5909 118.585 40.9894 118.695 36.4708 118.741L48.7935 64.4118C49.4101 61.6544 50.0727 58.5386 50.7814 55.0735C51.7753 50.3952 52.7416 45.4412 53.6435 40.3585C54.8123 34.1176 55.705 28.0699 56.3031 22.3621C56.9013 16.6452 57.2603 11.9301 57.3615 8.3364C57.4075 6.48897 57.1774 5.02757 56.6529 3.86949C56.1651 2.79412 55.0976 1.36029 52.8336 0.689338C51.6096 0.330882 49.9623 0.15625 47.772 0.15625C42.83 0.15625 39.0108 0.358456 36.1027 0.772059C32.8448 1.24081 30.4612 2.03125 28.7955 3.18015C26.7985 4.56801 25.6297 6.54412 25.3996 8.94301L25.1051 13.0331C24.737 16.8107 24.2861 20.8732 23.7615 25.2206C23.2461 29.5129 22.5283 34.2279 21.6172 39.2923C21.0834 42.6838 20.5404 45.7904 20.0251 48.4743C19.1784 52.3805 18.2213 56.8107 17.1814 61.7188L0.422781 135.533C-0.249035 138.346 -0.120194 140.524 0.809305 142.197C2.16214 144.632 5.1623 145.441 7.29739 145.836C9.87422 146.314 13.8223 146.553 19.3533 146.553C29.2188 146.553 39.4249 146.397 49.6862 146.094C60.1408 145.781 67.7056 145.45 72.8869 145.055C74.6078 144.871 76.1539 144.053 77.3503 142.711C78.3534 141.59 79.1817 139.972 79.8903 137.757C80.4977 135.846 81.0683 133.355 81.6389 130.165C82.1911 127.215 82.4395 125.037 82.4027 123.483C82.3291 120.551 81.0223 119.044 79.9363 118.3H79.9455Z" fill="#FE7E1E"/>
<path d="M255.345 81.1857C255.345 73.557 253.937 66.5533 251.148 60.3768C248.295 54.0533 243.97 48.9706 238.292 45.2849C232.604 41.5901 225.656 39.7243 217.64 39.7243C206.716 39.7243 196.906 43.0882 188.485 49.7243C184.114 53.171 180.221 57.2059 176.871 61.7647C176.678 61.296 176.485 60.8272 176.273 60.3768C173.42 54.0533 169.095 48.9706 163.416 45.2849C157.729 41.5901 150.781 39.7243 142.765 39.7243C131.841 39.7243 122.031 43.0882 113.61 49.7243C105.346 56.2408 98.876 64.7702 94.3758 75.0827C89.9123 85.3125 87.6484 96.0386 87.6484 106.967C87.6484 114.642 89.0749 121.664 91.9002 127.84C94.7899 134.164 99.1337 139.228 104.812 142.895C110.499 146.572 117.402 148.428 125.353 148.428C136.314 148.428 146.133 145.064 154.563 138.428C158.935 134.982 162.809 130.956 166.159 126.406C166.361 126.893 166.564 127.371 166.785 127.84C169.674 134.164 174.018 139.228 179.696 142.895C185.384 146.572 192.286 148.428 200.237 148.428C211.198 148.428 221.018 145.064 229.448 138.428C237.712 131.912 244.172 123.382 248.654 113.088C253.099 102.877 255.354 92.1415 255.354 81.1765L255.345 81.1857ZM205.345 72.8033C208.391 68.9982 211.483 67.0588 214.539 67.0588C216.646 67.0588 218.358 67.5276 219.748 68.5018C221.147 69.4853 222.223 70.9835 223.015 73.0974C223.898 75.4228 224.34 78.318 224.34 81.682C224.34 86.8015 223.236 92.6471 221.073 99.0625C218.901 105.46 216.057 110.901 212.597 115.257C209.532 119.118 206.44 121.094 203.44 121.121C201.277 121.121 199.566 120.643 198.194 119.651C196.786 118.64 195.719 117.142 194.936 115.074C194.071 112.813 193.639 109.908 193.639 106.443C193.639 101.222 194.743 95.3217 196.906 88.9063C199.069 82.5184 201.912 77.0956 205.345 72.7941V72.8033ZM130.479 72.8033C133.525 68.9982 136.617 67.0588 139.673 67.0588C141.78 67.0588 143.492 67.5276 144.882 68.5018C146.28 69.4853 147.357 70.9835 148.149 73.0974C149.032 75.4228 149.474 78.318 149.474 81.682C149.474 86.8015 148.37 92.6471 146.207 99.0625C144.035 105.46 141.191 110.901 137.731 115.257C134.666 119.118 131.574 121.094 128.574 121.121C126.411 121.121 124.7 120.643 123.328 119.651C121.92 118.64 120.853 117.142 120.07 115.074C119.205 112.813 118.773 109.908 118.773 106.443C118.773 101.222 119.877 95.3217 122.04 88.9063C124.203 82.5184 127.046 77.0956 130.479 72.7941V72.8033Z" fill="#FE7E1E"/>
<path d="M350.669 58.0331C348.092 52.0404 344.42 47.4081 339.736 44.2647C335.033 41.1121 329.502 39.5129 323.299 39.5129C316.498 39.5129 310.388 41.0294 305.124 44.0165C302.022 45.7813 299.16 47.9871 296.546 50.6342C296.473 49.9908 296.399 49.3474 296.326 48.6949C296.123 46.5901 295.829 45.1103 295.414 44.0441C294.605 41.9853 293.261 41.1305 292.276 40.7721C290.252 40.0368 286.81 40.1379 281.509 40.864C278.72 41.25 276.07 41.7463 273.649 42.3529C270.686 43.0882 268.845 43.9063 267.76 44.9357C266.6 45.9743 265.845 47.3162 265.578 48.8051C265.367 49.9173 265.33 51.1673 265.459 52.6287L265.983 55.6434C266.471 59.5313 266.738 63.5662 266.775 67.6379C266.802 71.5901 266.333 75.8088 265.376 80.1471L251.774 140.671C250.495 146.461 249.179 151.572 248.341 157.279C247.504 162.987 246.86 168.75 246.409 174.393C246.215 176.838 247.301 178.971 249.372 180.23C250.973 181.204 253.007 181.682 255.584 181.682C258.161 181.682 260.544 181.608 262.781 181.471C265.035 181.333 267.207 181.075 269.214 180.726C270.999 180.441 272.398 180.064 273.493 179.577C274.901 178.943 275.978 178.033 276.686 176.884C277.321 175.846 277.69 174.596 277.791 173.244C278.297 168.474 278.895 163.658 279.558 158.934C280.22 154.191 282.613 144.145 282.871 143.162L283.423 140.744C284.352 141.7 285.346 142.555 286.396 143.327C290.85 146.581 296.344 148.226 302.731 148.226C312.56 148.226 321.578 144.752 329.548 137.914C337.306 131.241 343.472 122.463 347.862 111.82C352.224 101.25 354.442 90.2298 354.442 79.0533C354.442 70.9375 353.172 63.8603 350.678 58.0423L350.669 58.0331ZM323.18 79.4026C323.18 85.0276 321.983 91.296 319.609 98.0515C317.262 104.761 314.087 110.45 310.167 114.963C306.568 119.118 302.915 121.131 299.013 121.131C297.053 121.131 295.387 120.708 293.905 119.835C292.561 119.044 291.595 117.886 290.969 116.296C290.298 114.605 290.169 112.491 290.555 110.175L296.528 82.8401C297.642 79.6232 299.096 76.7647 300.853 74.3199C302.584 71.9302 304.636 70.0184 306.946 68.6397C309.173 67.307 311.556 66.6636 314.225 66.6636C316.038 66.6636 317.557 67.0772 318.873 67.9228C320.161 68.75 321.155 70.0276 321.91 71.829C322.747 73.8052 323.171 76.3603 323.171 79.4118L323.18 79.4026Z" fill="#FE7E1E"/>
<path d="M379.483 34.9449C381.968 36.5625 384.729 37.3897 387.702 37.3897C391.162 37.3897 394.484 36.4063 397.567 34.4669C400.577 32.5735 403.034 30.0276 404.874 26.8934C406.733 23.7224 407.681 20.2941 407.681 16.7096C407.681 13.9706 406.982 11.2776 405.611 8.72243C404.239 6.16728 402.325 4.07169 399.942 2.48162C397.466 0.836397 394.705 0 391.723 0C388.309 0 385.005 0.965074 381.904 2.85846C378.858 4.72426 376.382 7.26103 374.551 10.3952C372.692 13.5662 371.744 17.0404 371.744 20.7261C371.744 23.5018 372.434 26.1949 373.787 28.7316C375.149 31.2776 377.063 33.3732 379.483 34.9449Z" fill="#FE7E1E"/>
<path d="M398.57 68.0423C399.233 63.3824 399.785 59.1176 400.181 55.386C400.383 53.5294 400.558 51.4982 400.705 49.3107C400.816 47.3254 400.365 45.6618 399.371 44.375C398.368 43.079 396.785 42.2243 394.53 41.7371C392.8 41.3695 390.417 41.1857 387.251 41.1857C383.238 41.1857 380.118 41.4246 377.698 41.9118C374.937 42.4724 372.94 43.318 371.578 44.5037C370.014 45.864 369.13 47.6563 369.01 49.6967C368.946 51.0294 368.863 52.3989 368.762 53.7316C368.431 57.2886 367.961 61.0294 367.363 64.8529C366.756 68.75 366.029 73.079 365.191 77.8217C364.317 82.6379 363.203 88.0423 361.906 93.8695C360.608 99.6967 359.007 106.36 357.139 113.686C356.228 117.381 355.289 121.103 354.35 124.844L351.543 135.708C350.853 138.511 350.899 140.699 351.7 142.408C352.62 144.375 354.543 145.662 357.396 146.213C359.439 146.608 362.486 146.811 366.701 146.811C370.225 146.811 372.839 146.664 374.716 146.36C377.045 145.983 378.784 145.23 380.045 144.053C381.269 142.914 382.152 141.278 382.677 139.191L386.855 122.335C387.288 120.57 387.867 118.336 388.585 115.588C390.315 108.502 391.871 102.059 393.251 96.2684C394.631 90.4504 395.681 85.4871 396.362 81.5625C397.172 77.261 397.926 72.7206 398.598 68.0515L398.57 68.0423Z" fill="#FE7E1E"/>
<path d="M499.039 59.0625C498.211 52.7206 495.864 47.8125 492.072 44.4853C488.272 41.1489 483.192 39.4577 476.97 39.4577C469.7 39.4577 462.246 42.2243 454.8 47.693C450.53 50.8272 446.407 54.5956 442.468 58.9522C442.514 58.6581 442.551 58.3548 442.597 58.0515C442.846 56.25 443.03 54.4393 443.159 52.6563C443.288 50.7813 443.297 49.1085 443.177 47.6746C442.956 44.7702 441.53 43.2537 440.37 42.5C438.99 41.5993 437.057 41.1765 434.305 41.1765C429.814 41.1765 425.968 41.4798 422.866 42.068C419.461 42.7206 416.939 43.6673 415.172 44.9449C412.402 46.9577 411.823 49.2647 411.823 50.8915C411.85 53.1618 411.685 56.4154 411.326 60.5699C410.958 64.7427 410.24 69.6324 409.172 75.1563C408.371 79.5404 406.816 86.6177 404.543 96.1857C402.252 105.855 399.84 115.91 397.291 126.369C396.481 129.816 395.635 133.309 394.733 136.93C394.171 139.439 394.411 141.517 395.432 143.088C396.491 144.733 398.34 145.772 401.083 146.259C403.098 146.618 405.896 146.792 409.651 146.792C414.188 146.792 417.611 146.324 420.114 145.368C424.063 143.851 425.406 141.057 425.866 138.879C426.096 137.601 426.354 136.305 426.685 134.844C427.017 132.895 427.477 130.404 428.047 127.371C428.609 124.375 429.428 120.469 430.477 115.744C431.756 109.761 434.618 103.006 438.971 95.6526C443.352 88.2537 448.23 81.9485 453.466 76.9118C457.985 72.5735 461.979 70.1654 465.089 69.9265C465.209 70.2206 465.439 70.9927 465.457 72.6103C465.476 74.3382 465.2 76.5809 464.638 79.2279L457.856 109.642C457.009 113.796 456.227 117.923 455.518 121.903C454.819 125.91 454.267 129.384 453.899 132.233C453.503 135.23 453.31 137.298 453.31 138.456C453.264 140.377 453.595 141.939 454.34 143.226C455.178 144.678 456.54 145.717 458.261 146.232C459.531 146.608 461.169 146.792 463.258 146.792C467.703 146.792 471.145 146.636 473.795 146.314C476.74 145.956 478.967 145.313 480.615 144.366C482.621 143.199 483.928 141.461 484.388 139.357L484.434 139.063C484.535 138.208 484.692 136.801 484.894 134.853C485.225 131.801 485.695 128.382 486.293 124.706C486.882 121.094 487.839 116.756 489.146 111.792L496.987 80.579C499.113 72.261 499.794 65.0276 499.021 59.0625H499.039Z" fill="#FE7E1E"/>
</g>
<defs>
<clipPath id="clip0_196_154">
<rect width="500" height="182" fill="white"/>
</clipPath>
</defs>
</svg>
