<?xml version="1.0" encoding="UTF-8"?>
<svg xmlns="http://www.w3.org/2000/svg" xmlns:xlink="http://www.w3.org/1999/xlink" viewBox="0 0 955.35 1070.06">
  <defs>
    <style>
      .cls-1 {
        fill: #fe7e1e;
      }

      .cls-1, .cls-2, .cls-3, .cls-4, .cls-5, .cls-6, .cls-7, .cls-8 {
        stroke-width: 0px;
      }

      .cls-2 {
        fill: url(#Degradado_sin_nombre_17);
      }

      .cls-3 {
        fill: url(#Degradado_sin_nombre_12);
      }

      .cls-4 {
        fill: url(#Degradado_sin_nombre_10);
      }

      .cls-9 {
        mix-blend-mode: multiply;
      }

      .cls-5 {
        fill: #fe984b;
      }

      .cls-6 {
        fill: #ffe5a5;
        opacity: .2;
      }

      .cls-7 {
        fill: url(#Degradado_sin_nombre_10-2);
      }

      .cls-10 {
        isolation: isolate;
      }

      .cls-8 {
        fill: #e9f4ff;
      }
    </style>
    <linearGradient id="Degradado_sin_nombre_10" data-name="Degradado sin nombre 10" x1="181.48" y1="354.45" x2="804.49" y2="354.45" gradientUnits="userSpaceOnUse">
      <stop offset="0" stop-color="#5922fc"/>
      <stop offset="1" stop-color="#120732"/>
    </linearGradient>
    <linearGradient id="Degradado_sin_nombre_10-2" data-name="Degradado sin nombre 10" x1="217.72" y1="289.48" x2="760.77" y2="289.48" xlink:href="#Degradado_sin_nombre_10"/>
    <linearGradient id="Degradado_sin_nombre_17" data-name="Degradado sin nombre 17" x1="45.6" y1="272.96" x2="48.02" y2="471.87" gradientUnits="userSpaceOnUse">
      <stop offset="0" stop-color="#5e48f6"/>
      <stop offset=".97" stop-color="#130936"/>
      <stop offset="1" stop-color="#26264f"/>
    </linearGradient>
    <linearGradient id="Degradado_sin_nombre_12" data-name="Degradado sin nombre 12" x1="922.1" y1="274.82" x2="923.27" y2="452.04" gradientUnits="userSpaceOnUse">
      <stop offset="0" stop-color="#5922fc"/>
      <stop offset="1" stop-color="#120732"/>
    </linearGradient>
  </defs>
  <g class="cls-10">
    <g id="Capa_2" data-name="Capa 2">
      <g id="Illustration">
        <g>
          <g class="cls-9">
            <path class="cls-1" d="M926.86,246.67h0c-6.15-.01-11.91,3.25-16.55,8.74,0,0-.05,0-.05-.01C858.75,110.67,689.09,3.01,485.49,1.09c-41.42-.39-81.63,3.61-119.88,11.5-.04,0-.08.02-.12.02,0,0,0-.02,0-.03C213.35,43.83,92.22,135.9,49,254.08c-4.9-5.67-11.58-9.02-18.06-9.03-16.57-.03-30.94,21.57-30.94,48.23v140.24c0,26.7,13.72,48.21,30.29,48.12.1,0,.41-.03.5-.03.12,0,.35.03.47.03,9.89-.05,19.2-7.83,24.62-19.74,60.92,139.15,231.21,237.53,429.55,235.12,55.52-.68,108.54-9.21,157.27-24.22,123.24-37.83,219.52-116.99,261.15-214.99,0,0,.01-.02.01-.03,5.17,11.56,13.62,19.07,22.99,19.01h0c15.65-.08,28.49-21.14,28.49-47.03v-136.17c0-25.89-12.85-46.9-28.49-46.93Z"/>
            <path class="cls-1" d="M738.99,1069.54c23.51-.02,40.27-22.81,33.3-45.26-9.29-29.9-18.56-59.78-27.83-89.65-35.56-114.55-140.83-189.74-259.61-185.89-37.51,1.22-73.62,9.81-106.76,24.52-76.89,34.15-137.83,101.28-163.3,186.07-7.43,24.74-13.47,44.8-19.78,65.77-6.74,22.42,10.05,44.99,33.46,44.97l510.52-.53Z"/>
          </g>
          <g>
            <g>
              <path class="cls-8" d="M922.35,339.58c0,37.35-7.73,73.29-22.03,106.94-40.7,95.8-134.81,173.19-255.29,210.17-47.63,14.67-99.46,23.02-153.73,23.68-193.9,2.36-360.36-93.82-419.91-229.86-15.08-34.43-23.25-71.32-23.25-109.72,0-32.38,5.83-63.73,16.7-93.45C107.09,131.81,225.39,41.8,374.11,11.27,411.5,3.55,450.81-.35,491.3.03c199.04,1.87,364.88,107.12,415.24,248.61,10.3,28.95,15.81,59.45,15.81,90.95Z"/>
              <path class="cls-5" d="M693.54,522.3l-393.1,2.83c-80.51.58-146.08-64.93-146.08-146.32v-86.06c.47-6.97,2.8-28.1,19.39-47.04,19.94-22.77,46.2-26.04,52.21-26.63,70.06-16.88,163.08-32.33,272.89-32.05,108.97.28,201.28,15.97,270.95,33.02,6.44,1.17,28.82,6.07,46.3,26.66,15.93,18.76,18.17,39.24,18.62,46.12v84.22c0,79.66-63.06,144.69-141.19,145.25Z"/>
              <path class="cls-5" d="M519.28,595.31l-56.01.53c-77.67.74-140.91-62.64-140.91-141.56h0c0-78.92,63.24-142.93,140.91-142.97l56.01-.03c77.01-.04,139.17,63.23,139.17,141.32h0c0,78.09-62.16,141.97-139.17,142.7Z"/>
              <path class="cls-4" d="M785.91,397.94c-41.77,64.05-129.56,70.97-294.36,81.61,0,0-79.94,5.16-198.18-14.57-17.43-2.91-54.93-9.79-81.44-37.16-15.72-16.23-23.03-34.97-23.67-36.67-4.38-11.55-6.77-24.09-6.77-37.21v-38.18c1.39-12.46,5.54-31.24,19.36-47.01,22-25.11,55.79-28.04,72.72-29.27,93.72-6.79,140.59-10.19,220.45-10.68,11.52-.07,165.77-1.14,244.73,15.54,10.76,2.27,31.51,7.28,47.09,24.9,14.07,15.91,17.62,34.98,18.66,46.15v37.43c-2.5,11.53-7.51,28.17-18.58,45.13Z"/>
              <g>
                <path class="cls-7" d="M760.77,326.09c-.57-34.73-8.4-68.61-23.29-100.72-15.01-32.37-36.31-59.06-63.34-79.28-27.57-20.59-59.46-30.75-94.87-30.19-25.68.4-47.88,6.63-66.06,18.56-18.15,11.9-31.92,28.16-40.93,48.33-.69,1.5-1.32,3.02-1.95,4.57-11.06-14.24-23.78-26.79-38.07-37.49-27.57-20.59-59.46-30.75-94.86-30.19-25.68.4-47.88,6.63-66.06,18.56-18.15,11.9-31.92,28.16-40.93,48.33-8.81,19.7-13.05,42.01-12.66,66.32.56,34.61,8.43,68.46,23.37,100.63,15.07,32.43,36.41,59.12,63.43,79.34,27.54,20.59,59.4,30.75,94.69,30.2,25.89-.41,48.24-6.67,66.42-18.65,18.15-11.96,31.86-28.27,40.75-48.44.66-1.44,1.26-2.93,1.86-4.43,11.06,14.27,23.84,26.85,38.13,37.54,27.54,20.59,59.4,30.75,94.69,30.2,25.89-.41,48.24-6.67,66.42-18.65,18.15-11.96,31.86-28.27,40.75-48.44,8.69-19.7,12.88-41.95,12.48-66.11l.03.03ZM599.67,355.17c-11.31-13.45-20.77-30.48-28.09-50.6-7.32-20.21-11.19-38.84-11.46-55.37-.18-10.97,1.07-20.2,3.74-27.4,2.42-6.59,5.79-11.39,10.29-14.66,4.38-3.21,9.88-4.81,16.87-4.92,9.69-.07,19.78,6.04,29.88,18.11,11.4,13.62,20.87,30.71,28.21,50.86,7.32,20.21,11.18,38.66,11.45,54.88.17,10.65-1.1,19.84-3.84,27.25-2.45,6.73-5.85,11.53-10.32,14.72-4.44,3.16-9.95,4.73-16.75,4.83-9.87.15-19.96-5.83-29.99-17.73v.03ZM357.85,358.95c-11.31-13.45-20.77-30.48-28.09-50.6-7.32-20.21-11.19-38.84-11.46-55.37-.18-10.97,1.07-20.2,3.74-27.4,2.42-6.59,5.79-11.39,10.29-14.66,4.38-3.21,9.88-4.81,16.87-4.92,9.69-.07,19.78,6.04,29.88,18.11,11.4,13.62,20.87,30.71,28.21,50.86,7.32,20.21,11.18,38.66,11.45,54.88.17,10.65-1.1,19.84-3.84,27.25-2.45,6.73-5.85,11.53-10.32,14.72-4.44,3.16-9.95,4.73-16.75,4.83-9.87.15-19.96-5.83-29.99-17.73v.03Z"/>
                <path class="cls-8" d="M599.73,351.48c-11.09-13.45-20.37-30.48-27.54-50.6-7.17-20.21-10.97-38.84-11.23-55.37-.18-10.97,1.05-20.2,3.67-27.4,2.38-6.59,5.68-11.39,10.09-14.66,4.29-3.21,9.69-4.81,16.54-4.92,9.5-.07,19.39,6.04,29.3,18.11,11.18,13.62,20.46,30.71,27.66,50.86,7.17,20.21,10.97,38.66,11.22,54.88.17,10.65-1.08,19.84-3.76,27.25-2.4,6.73-5.73,11.53-10.11,14.72-4.35,3.16-9.75,4.73-16.42,4.83-9.68.15-19.57-5.83-29.41-17.73v.03Z"/>
                <path class="cls-8" d="M358.21,358.12c-11.09-13.45-20.37-30.48-27.54-50.6-7.17-20.21-10.97-38.84-11.23-55.37-.18-10.97,1.05-20.2,3.67-27.4,2.38-6.59,5.68-11.39,10.09-14.66,4.29-3.21,9.69-4.81,16.54-4.92,9.5-.07,19.39,6.04,29.3,18.11,11.18,13.62,20.46,30.71,27.66,50.86,7.17,20.21,10.97,38.66,11.22,54.88.17,10.65-1.08,19.84-3.76,27.25-2.4,6.73-5.73,11.53-10.11,14.72-4.35,3.16-9.75,4.73-16.42,4.83-9.68.15-19.57-5.83-29.41-17.73v.03Z"/>
              </g>
              <path class="cls-2" d="M74.08,285.69v136.85c0,10.44-.62,20.12-4.2,27.98-5.3,11.64-12.82,19.24-22.49,19.29-16.2.09-28.29-20.95-28.29-47.04v-137.1c0-26.06,12.84-47.18,29.04-47.15,6.34.01,12.05,3.28,16.84,8.83,1.32,1.5.98,3.19,2.12,5.03,5.3,8.54,6.98,20.31,6.98,33.32Z"/>
              <path class="cls-3" d="M922.64,465.08h0c-15.31.08-27.74-20.4-27.74-45.76v-133.36c0-25.36,12.42-45.89,27.74-45.86h0c15.3.03,27.69,20.57,27.69,45.88v133.12c0,25.31-12.39,45.9-27.69,45.98Z"/>
            </g>
            <path class="cls-8" d="M748.54,1044.42c18.29.04,31.36-17.68,25.94-35.15-10.01-32.22-20.01-64.42-29.99-96.61-34.77-111.98-137.68-185.49-253.79-181.73-36.67,1.19-71.97,9.59-104.37,23.97-75.17,33.39-134.74,99.01-159.65,181.9-8.11,27.01-14.28,47.49-21.1,70.16-5.44,18.09,8.08,36.31,26.96,36.35l516,1.11Z"/>
            <path class="cls-6" d="M524.45,593.95c38.53,25.11,80.33,45.62,122.45,61.46-47.63,14.67-99.46,23.02-153.73,23.68-193.9,2.36-360.36-93.82-419.91-229.86-5.3,11.64-13.58,19.24-23.25,19.3-16.2.09-29.04-20.94-29.04-47.04v-137.1c0-26.06,12.84-47.18,29.04-47.15,6.34.01,12.05,3.28,16.84,8.83C109.1,130.53,227.32,40.52,376.05,9.98c14.06,50.19,13.63,112.67-12.17,190.2-2.84,8.49-5.3,16.87-7.46,25.15-2.01,7.7-3.71,15.32-5.15,22.87-3.78,19.98-5.61,39.34-5.65,58.09-.04,20.09,1.9,39.45,5.68,58.08.25,1.16.47,2.29.75,3.41,6.79,31.69,18.83,61.2,34.94,88.53,14.05,23.9,31.25,46.1,50.74,66.54,25.51,26.71,54.97,50.45,86.72,71.09Z"/>
          </g>
        </g>
      </g>
    </g>
  </g>
</svg>