<svg width="120" height="132" viewBox="0 0 120 132" fill="none" xmlns="http://www.w3.org/2000/svg">
<circle opacity="0.3" cx="60" cy="60" r="60" fill="url(#paint0_linear_10_257)"/>
<g clip-path="url(#clip0_10_257)">
<g style="mix-blend-mode:multiply">
<path d="M105.018 45.8199C104.374 45.8188 103.771 46.1601 103.286 46.7347C103.286 46.7347 103.28 46.7347 103.28 46.7337C97.8885 31.5843 80.1296 20.3151 58.818 20.1141C54.4824 20.0733 50.2735 20.492 46.2697 21.3179C46.2656 21.3179 46.2614 21.32 46.2572 21.32C46.2572 21.32 46.2572 21.3179 46.2572 21.3168C30.3321 24.5879 17.653 34.2252 13.129 46.5955C12.6161 46.002 11.9169 45.6514 11.2386 45.6503C9.50416 45.6472 8 47.9081 8 50.6987V65.3782C8 68.1729 9.43612 70.4245 11.1706 70.4151C11.181 70.4151 11.2135 70.4119 11.2229 70.4119C11.2355 70.4119 11.2595 70.4151 11.2721 70.4151C12.3073 70.4098 13.2818 69.5955 13.8492 68.3488C20.2259 82.9141 38.0508 93.2119 58.8117 92.9597C64.6232 92.8885 70.173 91.9956 75.2738 90.4245C88.1738 86.4647 98.2517 78.1787 102.609 67.9207C102.609 67.9207 102.61 67.9186 102.61 67.9175C103.152 69.1276 104.036 69.9137 105.017 69.9074C106.655 69.899 107.999 67.6946 107.999 64.9846V50.7312C107.999 48.0212 106.654 45.822 105.017 45.8188L105.018 45.8199Z" fill="#FE7E1E"/>
<path d="M85.3528 131.953C87.8137 131.951 89.568 129.565 88.8384 127.215C87.866 124.085 86.8957 120.958 85.9254 117.831C82.2032 105.841 71.1842 97.9704 58.751 98.3734C54.8247 98.5011 51.0449 99.4002 47.5761 100.94C39.5277 104.515 33.1489 111.541 30.4828 120.417C29.7051 123.006 29.0729 125.106 28.4124 127.301C27.7069 129.648 29.4644 132.01 31.9148 132.008L85.3528 131.953Z" fill="#FE7E1E"/>
</g>
<path d="M104.546 55.5451C104.546 59.4546 103.737 63.2166 102.24 66.7389C97.9796 76.7666 88.1288 84.8673 75.5177 88.7382C70.5321 90.2737 65.1068 91.1478 59.4262 91.2168C39.13 91.4639 21.706 81.3963 15.4727 67.1565C13.8942 63.5526 13.039 59.6912 13.039 55.6717C13.039 52.2824 13.6492 49.0009 14.7871 45.89C19.2095 33.797 31.5924 24.3754 47.1595 21.1797C51.0732 20.3716 55.188 19.9634 59.4262 20.0031C80.2604 20.1989 97.6195 31.2158 102.891 46.0261C103.969 49.0564 104.546 52.2489 104.546 55.5461V55.5451Z" fill="#E9F4FF"/>
<path d="M80.5954 74.6711L39.4482 74.9673C31.0209 75.028 24.1574 68.1708 24.1574 59.6514V50.6432C24.2066 49.9136 24.4505 47.7019 26.1871 45.7194C28.2743 43.3359 31.023 42.9937 31.6521 42.9319C38.9855 41.165 48.7223 39.5478 60.2165 39.5771C71.6228 39.6064 81.2852 41.2488 88.5778 43.0334C89.2519 43.1559 91.5945 43.6688 93.4242 45.824C95.0916 47.7877 95.3261 49.9314 95.3732 50.6516V59.4672C95.3732 67.8055 88.7725 74.6124 80.5944 74.6711H80.5954Z" fill="#FE984B"/>
<path d="M62.355 82.3133L56.4922 82.3688C48.3622 82.4462 41.7426 75.812 41.7426 67.5512C41.7426 59.2903 48.3622 52.5902 56.4922 52.586L62.355 52.5828C70.4159 52.5786 76.9224 59.2013 76.9224 67.3753C76.9224 75.5493 70.4159 82.2358 62.355 82.3122V82.3133Z" fill="#FE984B"/>
<path d="M87.6326 54.1331C87.5729 50.4977 86.7533 46.9514 85.1947 43.5903C83.6236 40.202 81.394 37.4083 78.5647 35.2918C75.6788 33.1366 72.3408 32.0731 68.6343 32.1317C65.9463 32.1736 63.6225 32.8257 61.7196 34.0744C59.8197 35.3201 58.3784 37.022 57.4353 39.1333C57.363 39.2903 57.2971 39.4494 57.2312 39.6117C56.0735 38.1211 54.742 36.8075 53.2462 35.6875C50.3604 33.5322 47.0223 32.4687 43.3169 32.5274C40.6289 32.5692 38.3051 33.2213 36.4021 34.4701C34.5023 35.7157 33.061 37.4177 32.1178 39.529C31.1957 41.5911 30.7519 43.9263 30.7927 46.4709C30.8513 50.0937 31.6751 53.6369 33.2389 57.0043C34.8163 60.3988 37.0501 63.1926 39.8784 65.3091C42.7611 67.4643 46.096 68.5278 49.7899 68.4702C52.4999 68.4273 54.8394 67.772 56.7423 66.518C58.6422 65.2661 60.0772 63.5589 61.0078 61.4477C61.0769 61.2969 61.1397 61.141 61.2025 60.9839C62.3602 62.4776 63.6979 63.7944 65.1937 64.9134C68.0764 67.0686 71.4113 68.1321 75.1052 68.0745C77.8152 68.0316 80.1547 67.3764 82.0577 66.1224C83.9575 64.8705 85.3926 63.1633 86.3231 61.052C87.2327 58.9899 87.6713 56.6609 87.6294 54.132L87.6326 54.1351V54.1331ZM70.7696 57.177C69.5858 55.7691 68.5956 53.9865 67.8294 51.8805C67.0632 49.765 66.6581 47.8149 66.6298 46.0847C66.611 44.9364 66.7418 43.9703 67.0213 43.2166C67.2746 42.5268 67.6273 42.0244 68.0984 41.6821C68.5569 41.3461 69.1326 41.1786 69.8642 41.1671C70.8785 41.1598 71.9347 41.7994 72.9919 43.0628C74.1852 44.4884 75.1764 46.2773 75.9447 48.3865C76.7109 50.5019 77.115 52.4332 77.1432 54.131C77.161 55.2457 77.0281 56.2077 76.7413 56.9833C76.4848 57.6878 76.1289 58.1902 75.6611 58.5241C75.1963 58.8549 74.6196 59.0192 73.9078 59.0297C72.8746 59.0454 71.8185 58.4194 70.7686 57.1738V57.177H70.7696ZM45.4575 57.5726C44.2736 56.1648 43.2834 54.3822 42.5172 52.2761C41.751 50.1607 41.3459 48.2106 41.3176 46.4804C41.2988 45.3321 41.4296 44.366 41.7091 43.6123C41.9624 42.9225 42.3152 42.4201 42.7862 42.0778C43.2447 41.7418 43.8204 41.5743 44.552 41.5628C45.5663 41.5555 46.6225 42.195 47.6797 43.4584C48.873 44.8841 49.8642 46.673 50.6325 48.7821C51.3987 50.8976 51.8028 52.8288 51.831 54.5266C51.8488 55.6414 51.7159 56.6034 51.4291 57.379C51.1726 58.0834 50.8168 58.5859 50.3489 58.9198C49.8841 59.2506 49.3074 59.4149 48.5956 59.4254C47.5624 59.4411 46.5063 58.8151 45.4564 57.5695V57.5726H45.4575Z" fill="url(#paint1_linear_10_257)"/>
<path d="M70.7759 56.7907C69.6151 55.3829 68.6437 53.6003 67.8932 51.4942C67.1427 49.3788 66.745 47.4287 66.7177 45.6985C66.6989 44.5502 66.8277 43.584 67.1019 42.8304C67.351 42.1406 67.6964 41.6382 68.1581 41.2959C68.6071 40.9599 69.1723 40.7924 69.8894 40.7809C70.8838 40.7736 71.919 41.4131 72.9563 42.6765C74.1265 44.1022 75.0979 45.8911 75.8516 48.0002C76.6021 50.1157 76.9998 52.0469 77.026 53.7447C77.0438 54.8595 76.913 55.8214 76.6324 56.5971C76.3812 57.3015 76.0327 57.804 75.5742 58.1379C75.1189 58.4686 74.5536 58.633 73.8554 58.6434C72.8422 58.6591 71.807 58.0332 70.777 56.7876V56.7907H70.7759Z" fill="#E9F4FF"/>
<path d="M45.4952 57.4857C44.3343 56.0779 43.363 54.2953 42.6124 52.1892C41.8619 50.0738 41.4642 48.1237 41.437 46.3935C41.4181 45.2452 41.5469 44.2791 41.8211 43.5254C42.0702 42.8356 42.4157 42.3332 42.8773 41.9909C43.3263 41.6549 43.8916 41.4874 44.6086 41.4759C45.603 41.4686 46.6382 42.1081 47.6755 43.3715C48.8458 44.7972 49.8171 46.5861 50.5708 48.6952C51.3213 50.8107 51.7191 52.7419 51.7452 54.4397C51.763 55.5545 51.6322 56.5165 51.3516 57.2921C51.1004 57.9965 50.7519 58.499 50.2934 58.8329C49.8381 59.1637 49.2728 59.328 48.5747 59.3385C47.5614 59.3542 46.5262 58.7282 45.4962 57.4826V57.4857H45.4952Z" fill="#E9F4FF"/>
<path d="M15.7542 49.9042V64.2288C15.7542 65.3216 15.6893 66.3348 15.3146 67.1576C14.7598 68.376 13.9727 69.1715 12.9605 69.1767C11.2648 69.1861 9.99927 66.9838 9.99927 64.2529V49.9021C9.99927 47.1743 11.3433 44.9636 13.039 44.9667C13.7026 44.9678 14.3003 45.3101 14.8017 45.891C14.9399 46.048 14.9043 46.2249 15.0236 46.4175C15.5784 47.3114 15.7542 48.5434 15.7542 49.9052V49.9042Z" fill="url(#paint2_linear_10_257)"/>
<path d="M104.576 68.6816C102.974 68.69 101.672 66.5463 101.672 63.8918V49.9325C101.672 47.278 102.973 45.129 104.576 45.1321C106.178 45.1353 107.475 47.2853 107.475 49.9346V63.8687C107.475 66.518 106.178 68.6733 104.576 68.6816Z" fill="url(#paint3_linear_10_257)"/>
<path d="M86.3524 129.323C88.2669 129.327 89.635 127.473 89.0677 125.644C88.0199 122.271 86.9732 118.901 85.9285 115.531C82.289 103.81 71.517 96.1155 59.3634 96.5091C55.525 96.6337 51.83 97.5129 48.4386 99.0181C40.5703 102.513 34.3349 109.382 31.7274 118.058C30.8785 120.886 30.2327 123.029 29.5188 125.402C28.9494 127.296 30.3646 129.203 32.3408 129.207L86.3524 129.323Z" fill="#E9F4FF"/>
<path opacity="0.2" d="M62.8961 82.1709C66.9292 84.7993 71.3046 86.9461 75.7134 88.6041C70.7278 90.1397 65.3026 91.0137 59.6219 91.0828C39.3257 91.3299 21.9017 81.2623 15.6684 67.0225C15.1136 68.2409 14.2469 69.0364 13.2347 69.0427C11.539 69.0522 10.195 66.8509 10.195 64.1189V49.7681C10.195 47.0403 11.539 44.8296 13.2347 44.8328C13.8984 44.8338 14.496 45.1761 14.9974 45.757C19.4199 33.663 31.7944 24.2414 47.3625 21.0446C48.8342 26.2982 48.7892 32.8382 46.0887 40.9535C45.7914 41.8422 45.5339 42.7194 45.3078 43.5861C45.0974 44.3921 44.9195 45.1897 44.7687 45.98C44.3731 48.0714 44.1815 50.0978 44.1773 52.0605C44.1731 54.1634 44.3762 56.1898 44.7719 58.1399C44.798 58.2613 44.8211 58.3796 44.8504 58.4969C45.5611 61.814 46.8214 64.9029 48.5077 67.7636C49.9783 70.2653 51.7787 72.5891 53.8188 74.7286C56.489 77.5244 59.5727 80.0094 62.8961 82.1699V82.1709Z" fill="#FFE5A5"/>
</g>
<defs>
<linearGradient id="paint0_linear_10_257" x1="18.6" y1="25.2" x2="84.6" y2="94.2" gradientUnits="userSpaceOnUse">
<stop stop-color="#FED878"/>
<stop offset="1" stop-color="#FE984B"/>
</linearGradient>
<linearGradient id="paint1_linear_10_257" x1="30.7895" y1="50.3009" x2="87.6326" y2="50.3009" gradientUnits="userSpaceOnUse">
<stop stop-color="#5922FC"/>
<stop offset="1" stop-color="#120732"/>
</linearGradient>
<linearGradient id="paint2_linear_10_257" x1="12.7731" y1="48.5717" x2="13.0264" y2="69.3923" gradientUnits="userSpaceOnUse">
<stop stop-color="#5E48F6"/>
<stop offset="0.97" stop-color="#130936"/>
<stop offset="1" stop-color="#26264F"/>
</linearGradient>
<linearGradient id="paint3_linear_10_257" x1="104.52" y1="48.7664" x2="104.642" y2="67.3167" gradientUnits="userSpaceOnUse">
<stop stop-color="#5922FC"/>
<stop offset="1" stop-color="#120732"/>
</linearGradient>
<clipPath id="clip0_10_257">
<rect width="100" height="112.007" fill="white" transform="translate(8 20)"/>
</clipPath>
</defs>
</svg>
